<?xml version="1.0" encoding="utf-8"?>
<!-- Generator: Adobe Illustrator 24.0.3, SVG Export Plug-In . SVG Version: 6.00 Build 0)  -->
<svg version="1.1" id="Layer_1" xmlns="http://www.w3.org/2000/svg" xmlns:xlink="http://www.w3.org/1999/xlink" x="0px" y="0px"
	 viewBox="0 0 500 94.1" style="enable-background:new 0 0 500 94.1;" xml:space="preserve">
<style type="text/css">
	.st0{fill:#FFFFFF;}
	.st1{fill-rule:evenodd;clip-rule:evenodd;fill:#50C9F5;}
</style>
<g>
	<g id="Shape_1">
		<g>
			<path class="st0" d="M53,3.6C48.5,1.2,43.4,0,37.6,0H0v17.1h38c2.2,0,4,0.5,5.6,1.5s2.9,2.4,3.7,4.1c0.9,1.8,1.3,3.8,1.3,6.2
				c0,2.3-0.5,4.3-1.4,6.1c-0.9,1.8-2.2,3.1-3.8,4.1c-1.6,1-3.5,1.5-5.6,1.5H8v0H0v53.5h17.7V57.6h19.9c5.8,0,11-1.2,15.4-3.6
				c4.4-2.4,7.9-5.7,10.3-10.1c2.4-4.3,3.7-9.4,3.7-15.1s-1.2-10.8-3.7-15.1C60.9,9.4,57.4,6,53,3.6z M415,3.6
				c-4.4-2.4-9.6-3.6-15.4-3.6H362v1.3v15.8v77h17.7V57.6h19.9c5.8,0,11-1.2,15.4-3.6c4.4-2.4,7.9-5.7,10.3-10.1
				c2.4-4.3,3.7-9.4,3.7-15.1s-1.2-10.8-3.7-15.1C422.9,9.4,419.5,6,415,3.6z M409.4,34.9c-0.9,1.8-2.2,3.1-3.8,4.1
				s-3.5,1.5-5.6,1.5h-20.4V17.1H400c2.2,0,4,0.5,5.6,1.5s2.9,2.4,3.7,4.1c0.9,1.8,1.3,3.8,1.3,6.2
				C410.7,31.1,410.3,33.2,409.4,34.9z M115,25.9c-4.2,0-7.8,1.1-10.6,3.2c-2.2,1.7-4.2,4-5.9,7V0H80.8v94.1h17.7V53.5
				c0-3.3,0.9-5.9,2.7-7.7c1.8-1.8,4.3-2.8,7.6-2.8c3.4,0,6.1,0.9,8,2.7s2.8,4.4,2.8,7.6v40.7h17.7V53.3c0-8.7-1.9-15.5-5.8-20.2
				C127.5,28.3,122,25.9,115,25.9z M194.7,28.9c-4.1-2-9.1-2.9-14.9-2.9c-5.3,0-10.2,0.8-14.6,2.5c-4.4,1.7-7.9,4.1-10.6,7.1
				l11,10.8c1.9-1.5,4.1-2.6,6.5-3.4c2.4-0.8,4.9-1.2,7.4-1.2c3.8,0,6.7,0.8,8.8,2.5c2.1,1.7,3.1,4.1,3.1,7.2v2.8h-16.2
				c-7.9,0-13.9,1.7-17.9,5c-4,3.3-6,8.3-6,14.9c0,7,1.8,12.2,5.3,15.6c3.5,3.4,8.9,5.1,16.1,5.1c3.3,0,6.4-0.4,9.3-1.3
				c2.9-0.8,5.4-2.1,7.3-3.8c0.8-0.7,1.5-1.4,2-2.3v6.3h16V50.9c0-5.3-1.1-9.8-3.3-13.5C202,33.7,198.8,30.9,194.7,28.9z
				 M191.3,74.1c0,2.3-1.1,4-3.5,5c-2.3,1.1-5.8,1.6-10.5,1.6c-3.4,0-5.9-0.5-7.6-1.6c-1.7-1.1-2.5-2.7-2.5-4.9c0-2.2,0.7-3.8,2-4.8
				c1.3-1.1,3.3-1.6,6-1.6h16.1L191.3,74.1L191.3,74.1z M273.5,41.9v-15h-49.7V43h29.5l-30.4,35.8v15.3h52.4V78h-31.3L273.5,41.9z
				 M328.9,28.4c-4.9-2.3-10.5-2.9-15.8-2.3c-5.3,0.6-10.4,2.5-14.6,5.7c-7.9,6-10.4,16.1-10.4,25.6v7.6c0,3.3,0.5,6.7,1.4,9.9
				c2.4,8.3,8.3,15.9,16.6,18.9c1,0.3,2,0.6,3.1,0.9c8.6,2,18.5,0.3,26.1-3.7c0.6-0.3,8.6-5.4,8.3-5.8c-3.9-3.4-7.7-6.8-11.5-10.3
				c-1.9,1.6-4,2.8-6.3,3.6s-4.7,1.3-7,1.3c-4.6,0-8.2-1.2-10.7-3.7c-2.1-2-3.3-4.7-3.7-8.1h41v-4.4
				C345.3,50.1,342.1,34.5,328.9,28.4z M304.2,55.8c0.2-5,2.2-10,6.9-12.5c3.5-1.8,7.9-1.8,11.4,0c4.3,2.3,6,6.3,6.5,10.9l0.2,1.6
				H304.2z M496.6,39.2c-2.3-4.3-5.5-7.6-9.9-9.9c-4.3-2.3-9.5-3.4-15.6-3.4c-6.1,0-11.3,1.1-15.6,3.4c-4.3,2.3-7.6,5.6-9.9,9.9
				c-2.3,4.3-3.4,9.5-3.4,15.6v10.9c0,6.2,1.1,11.4,3.4,15.8c2.3,4.4,5.5,7.7,9.9,10c4.3,2.3,9.5,3.4,15.6,3.4
				c6.1,0,11.3-1.1,15.6-3.4c4.3-2.3,7.6-5.6,9.9-9.9c2.3-4.3,3.4-9.6,3.4-15.7V54.9C500,48.8,498.9,43.6,496.6,39.2z M482.3,66
				c0,3.8-1,6.7-3,8.8c-2,2.1-4.8,3.1-8.3,3.1c-3.6,0-6.3-1-8.2-3.1c-1.9-2.1-2.9-5-2.9-8.8V54.9c0-3.7,1-6.7,2.9-8.7
				c2-2.1,4.7-3.1,8.2-3.1c3.6,0,6.3,1,8.3,3.1c2,2.1,3,5,3,8.7L482.3,66L482.3,66z"/>
		</g>
	</g>
	<g id="Shape_1_copy_2">
		<g>
			<polygon class="st1" points="407.9,55.9 397,39.2 382.6,17 362.1,17 376.2,39.1 376.3,39.2 379.7,44.5 387.2,56.2 411.5,94.1 
				432.9,94.1 			"/>
		</g>
	</g>
</g>
</svg>
